HIERARCHY
ROOT Hips
{
  OFFSET 47.6033 49.4497 -5.30764
  CHANNELS 6 Xposition Yposition Zposition Zrotation Xrotation Yrotation
  JOINT spine
  {
    OFFSET 0 6.2448 0.359107
    CHANNELS 3 Zrotation Xrotation Yrotation
    JOINT spine1
    {
      OFFSET 0 9.06941 0
      CHANNELS 3 Zrotation Xrotation Yrotation
      JOINT spine2
      {
        OFFSET 0 8.69014 0
        CHANNELS 3 Zrotation Xrotation Yrotation
        JOINT Neck
        {
          OFFSET 0 22.3112 1.06372
          CHANNELS 3 Zrotation Xrotation Yrotation
          JOINT Head
          {
            OFFSET 0 6.74081 0
            CHANNELS 3 Zrotation Xrotation Yrotation
            End Site
            {
              OFFSET 0 16.3165 -5.38097
            }
          }
        }
        JOINT RightShoulder
        {
          OFFSET -3.65916 9.38468 -0.509514
          CHANNELS 3 Zrotation Xrotation Yrotation
          JOINT RightArm
          {
            OFFSET 0 12.3089 0
            CHANNELS 3 Zrotation Xrotation Yrotation
            JOINT RightArmRoll
            {
              OFFSET 0 6.21375 0
              CHANNELS 3 Zrotation Xrotation Yrotation
              JOINT RightForeArm
              {
                OFFSET 0 18.0985 0
                CHANNELS 3 Zrotation Xrotation Yrotation
                JOINT RightForeArmRoll
                {
                  OFFSET 0 6.9728 0
                  CHANNELS 3 Zrotation Xrotation Yrotation
                  JOINT RightHand
                  {
                    OFFSET 0 13.9929 0
                    CHANNELS 3 Zrotation Xrotation Yrotation
                    End Site
                    {
                      OFFSET 0 0 0
                    }
                  }
                }
              }
            }
          }
        }
        JOINT LeftShoulder
        {
          OFFSET 3.65916 9.38468 -0.509514
          CHANNELS 3 Zrotation Xrotation Yrotation
          JOINT LeftArm
          {
            OFFSET 0 12.3089 0
            CHANNELS 3 Zrotation Xrotation Yrotation
            JOINT LeftArmRoll
            {
              OFFSET 0 6.21375 0
              CHANNELS 3 Zrotation Xrotation Yrotation
              JOINT LeftForeArm
              {
                OFFSET 0 18.0985 0
                CHANNELS 3 Zrotation Xrotation Yrotation
                JOINT LeftForeArmRoll
                {
                  OFFSET 0 6.97279 0
                  CHANNELS 3 Zrotation Xrotation Yrotation
                  JOINT LeftHand
                  {
                    OFFSET 0 13.9929 0
                    CHANNELS 3 Zrotation Xrotation Yrotation
                    End Site
                    {
                      OFFSET 0 0 0
                    }
                  }
                }
              }
            }
          }
        }
      }
    }
  }
  JOINT RightUpLeg
  {
    OFFSET -5.53516 -1.015 -0.851454
    CHANNELS 3 Zrotation Xrotation Yrotation
    JOINT RightUpLegRoll
    {
      OFFSET 0 16.4075 0
      CHANNELS 3 Zrotation Xrotation Yrotation
      JOINT RightLeg
      {
        OFFSET 0 -20.3181 0
        CHANNELS 3 Zrotation Xrotation Yrotation
        JOINT RightLegRoll
        {
          OFFSET 0 20.3846 0
          CHANNELS 3 Zrotation Xrotation Yrotation
          JOINT RightFoot
          {
            OFFSET 0 16.9668 0
            CHANNELS 3 Zrotation Xrotation Yrotation
            JOINT RightToeBase
            {
              OFFSET 0 14.1834 0
              CHANNELS 3 Zrotation Xrotation Yrotation
              End Site
              {
                OFFSET 0.0060118 6.8689 -0.791745
              }
            }
          }
        }
      }
    }
  }
  JOINT LeftUpLeg
  {
    OFFSET 5.53516 -1.015 -0.851454
    CHANNELS 3 Zrotation Xrotation Yrotation
    JOINT LeftUpLegRoll
    {
      OFFSET 0 16.4076 0
      CHANNELS 3 Zrotation Xrotation Yrotation
      JOINT LeftLeg
      {
        OFFSET 0 20.3181 0
        CHANNELS 3 Zrotation Xrotation Yrotation
        JOINT LeftLegRoll
        {
          OFFSET 0 20.5731 0
          CHANNELS 3 Zrotation Xrotation Yrotation
          JOINT LeftFoot
          {
            OFFSET 0 16.7783 0
            CHANNELS 3 Zrotation Xrotation Yrotation
            JOINT LeftToeBase
            {
              OFFSET 0 14.1834 0
              CHANNELS 3 Zrotation Xrotation Yrotation
              End Site
              {
                OFFSET -0.0269423 6.8689 -0.791746
              }
            }
          }
        }
      }
    }
  }
}
MOTION
Frames: 4
Frame Time: 0.00208333
50.1751 84.462 38.9943 -0.296048 0.317124 -3.63347 -0.119656 -1.25023 0.025803 -0.238975 1.50229 0.0645175 -0.239935 3.14735 0.0685606 1.29335 10.5154 -1.94134 0.629146 9.33072 -1.56157 65.6666 -3.89809 -2.88461 110.299 11.0031 4.76619 1.8911e-006 1.51369e-006 1.21035e-006 12.4862 13.7031 -2.00277 -7.06021e-006 7.30132e-007 -3 8.02886 -4.95139 0.697681 -63.692 -9.53758 5.96798 -114.575 8.17461 -12.0469 3.24582e-007 8.59319e-007 -1.87591e-006 -4.56036 19.9828 1.37139 2.68094e-006 -2.86019e-006 3 -8.02969 -4.95151 -0.697682 176.677 8.44451 0.455678 -180 7.0159e-015 179.129 178.69 8.94873 179.275 8.90174e-007 -2.0949e-006 0.0398313 -16.0483 67.6816 19.2792 8.13508 25.2345 -3.48476 -179.128 1.43914 -1.27084 4.54188e-006 -4.6773e-006 -1.10547 -1.68656 -9.86066 0.629069 -1.12593e-006 -1.14121e-006 -0.215553 20.9446 70.3492 -21.7312 -8.26091 26.8733 3.54617 
50.2046 84.4522 38.9502 -0.28494 0.347696 -3.62322 -0.121303 -1.25556 0.0217926 -0.24231 1.49162 0.0566639 -0.243177 3.13669 0.060758 1.29704 10.5397 -1.94187 0.621746 9.34143 -1.56084 65.6618 -3.88914 -2.87939 110.305 11.023 4.73501 1.8911e-006 1.51369e-006 1.21035e-006 12.5013 13.7347 -2.00815 -7.06021e-006 7.30132e-007 -3 8.02886 -4.95139 0.697681 -63.6968 -9.52976 5.96353 -114.575 8.20655 -11.9906 3.24582e-007 8.59319e-007 -1.87591e-006 -4.59718 20.0199 1.38037 2.68094e-006 -2.86019e-006 3 -8.02969 -4.95151 -0.697682 176.652 8.49029 0.471368 -180 7.0159e-015 179.13 178.675 8.94327 179.277 8.90174e-007 -2.0949e-006 0.0393485 -16.0197 67.6626 19.2651 8.13508 25.2345 -3.48476 -179.152 1.4917 -1.24539 4.54188e-006 -4.6773e-006 -1.10547 -1.68235 -9.86959 0.629287 -1.12593e-006 -1.14121e-006 -0.215531 20.9543 70.3474 -21.7296 -8.26018 26.8634 3.54533 
50.1311 84.4609 39.0264 -0.273083 0.379424 -3.61208 -0.123045 -1.2611 0.0175925 -0.245839 1.48056 0.0484408 -0.246607 3.12563 0.052589 1.29979 10.5629 -1.94203 0.614854 9.35276 -1.56005 65.6558 -3.88044 -2.8742 110.311 11.0429 4.70335 1.8911e-006 1.51369e-006 1.21035e-006 12.5164 13.7669 -2.0136 -7.06021e-006 7.30132e-007 -3 8.02886 -4.95139 0.697681 -63.702 -9.52214 5.95921 -114.575 8.23881 -11.9348 3.24582e-007 8.59319e-007 -1.87591e-006 -4.63345 20.0578 1.38928 2.68094e-006 -2.86019e-006 3 -8.02969 -4.95151 -0.697682 176.625 8.53772 0.48837 -180 7.0159e-015 179.131 178.66 8.93833 179.28 8.90174e-007 -2.0949e-006 0.0388866 -15.9912 67.6436 19.2511 8.13508 25.2345 -3.48476 -179.177 1.54579 -1.21865 4.54188e-006 -4.6773e-006 -1.10547 -1.67771 -9.87814 0.629557 -1.12593e-006 -1.14121e-006 -0.215499 20.9634 70.345 -21.7273 -8.25945 26.8534 3.54448 
50.1411 84.4626 39.0188 -0.260708 0.411962 -3.6003 -0.124854 -1.26677 0.0132598 -0.249505 1.46923 0.0399593 -0.250171 3.1143 0.0441637 1.30189 10.5853 -1.94193 0.608319 9.36452 -1.55921 65.6491 -3.8719 -2.86905 110.319 11.0629 4.67135 1.8911e-006 1.51369e-006 1.21035e-006 12.5315 13.7993 -2.01911 -7.06021e-006 7.30132e-007 -3 8.02886 -4.95139 0.697681 -63.7077 -9.51468 5.95498 -114.575 8.2713 -11.8795 3.24582e-007 8.59319e-007 -1.87591e-006 -4.66935 20.0962 1.39815 2.68094e-006 -2.86019e-006 3 -8.02969 -4.95151 -0.697682 176.598 8.58632 0.506292 -180 7.0159e-015 179.132 178.644 8.93378 179.283 8.90174e-007 -2.0949e-006 0.0384393 -15.9626 67.6247 19.2371 8.13508 25.2345 -3.48476 -179.204 1.60094 -1.191 4.54188e-006 -4.6773e-006 -1.10547 -1.67277 -9.88642 0.629865 -1.12593e-006 -1.14121e-006 -0.215458 20.9721 70.3422 -21.7245 -8.25871 26.8434 3.54362 
